<svg xmlns="http://www.w3.org/2000/svg" viewBox="0 0 1024 1024">
<rect width="1024" height="1024" rx="180" fill="#F7F8F6"/>
  <path d="M 2 7.6 C 12 3.6 30 2.8 50 4.2 C 68 5.4 84 3.6 98 5.4 C 99.4 5.8 99.4 6.6 98.2 7.0 C 84 6.6 66 8.6 46 7.8 C 28 7.1 12 9.6 2.4 9.0 C 1.2 8.7 1.0 8.1 2 7.6 Z" fill="#0E2E52" transform="translate(110,230) scale(8.1,24)"/>
  <path d="M 2 7.6 C 12 3.6 30 2.8 50 4.2 C 68 5.4 84 3.6 98 5.4 C 99.4 5.8 99.4 6.6 98.2 7.0 C 84 6.6 66 8.6 46 7.8 C 28 7.1 12 9.6 2.4 9.0 C 1.2 8.7 1.0 8.1 2 7.6 Z" fill="#3D7BC0" transform="translate(916,440) scale(-7.9,19)"/>
  <path d="M 2 7.6 C 12 3.6 30 2.8 50 4.2 C 68 5.4 84 3.6 98 5.4 C 99.4 5.8 99.4 6.6 98.2 7.0 C 84 6.6 66 8.6 46 7.8 C 28 7.1 12 9.6 2.4 9.0 C 1.2 8.7 1.0 8.1 2 7.6 Z" fill="#8FB8DE" transform="translate(125,640) scale(7.7,14)"/></svg>